<svg width="48" height="52" viewBox="0 0 48 52" fill="none" xmlns="http://www.w3.org/2000/svg">
<path d="M47.5 26.7047C47.5 34.0028 41.5837 39.919 34.2857 39.919C26.9876 39.919 21.0714 34.0028 21.0714 26.7047C21.0714 19.4067 26.9876 13.4904 34.2857 13.4904C41.5837 13.4904 47.5 19.4067 47.5 26.7047Z" stroke="#5877FF"/>
<path d="M27.6904 6.89523C27.6904 9.9854 25.1853 12.4905 22.0952 12.4905C19.005 12.4905 16.4999 9.9854 16.4999 6.89523C16.4999 3.80506 19.005 1.29999 22.0952 1.29999C25.1853 1.29999 27.6904 3.80506 27.6904 6.89523Z" stroke="#5877FF"/>
<path d="M20.8333 40.419C20.8333 46.0339 16.2815 50.5857 10.6667 50.5857C5.05177 50.5857 0.5 46.0339 0.5 40.419C0.5 34.8041 5.05177 30.2523 10.6667 30.2523C16.2815 30.2523 20.8333 34.8041 20.8333 40.419Z" stroke="#5877FF"/>
<path d="M38.8571 17.5619L39.4172 17.8419C40.0555 18.1611 40.6382 18.5811 41.1428 19.0857V19.0857L41.798 19.7409C42.3738 20.3167 42.8594 20.9761 43.2385 21.6968V21.6968C43.4245 22.0504 43.5841 22.4173 43.716 22.7945L44.1002 23.8938V23.8938C44.3605 24.7941 44.5077 25.7233 44.5386 26.66L44.54 26.7048" stroke="#BBD6F1"/>
<path d="M13.5619 33.8666L14.67 34.6726C15.0481 34.9475 15.4041 35.2517 15.7347 35.5823L15.924 35.7717C16.4789 36.3266 16.9408 36.9673 17.2917 37.6693V37.6693C17.4462 37.9782 17.5786 38.2978 17.6878 38.6255L18.1333 39.9618" stroke="#BBD6F1"/>
<path d="M23.619 4.26873V4.26873C24.6173 4.9549 25.1929 6.10601 25.1428 7.31635V7.31635" stroke="#BBD6F1"/>
</svg>
