<svg width="366" height="72" viewBox="0 0 366 72" fill="none" xmlns="http://www.w3.org/2000/svg">
<path d="M43.2853 23.6905C50.5832 23.6905 56.4999 29.6065 56.5001 36.9044C56.5001 44.2024 50.5833 50.1192 43.2853 50.1192C35.9874 50.119 30.0714 44.2023 30.0714 36.9044C30.0716 29.6066 35.9876 23.6907 43.2853 23.6905Z" stroke="#5877FF"/>
<path d="M31.0956 11.5C34.1856 11.5003 36.6904 14.0057 36.6904 17.0957C36.6901 20.1855 34.1854 22.6902 31.0956 22.6904C28.0056 22.6904 25.5002 20.1857 25.4999 17.0957C25.4999 14.0055 28.0055 11.5 31.0956 11.5Z" stroke="#5877FF"/>
<path d="M19.667 40.4523C25.2817 40.4525 29.833 45.0045 29.833 50.6193C29.8328 56.234 25.2816 60.7852 19.667 60.7853C14.0522 60.7853 9.50017 56.2341 9.5 50.6193C9.5 45.0044 14.0521 40.4523 19.667 40.4523Z" stroke="#5877FF"/>
<path d="M47.8571 27.7619L48.4172 28.042C49.0555 28.3611 49.6382 28.7811 50.1428 29.2857V29.2857L50.798 29.9409C51.3738 30.5167 51.8594 31.1761 52.2385 31.8968V31.8968C52.4245 32.2504 52.5841 32.6173 52.716 32.9945L53.1002 34.0938V34.0938C53.3605 34.9941 53.5077 35.9233 53.5386 36.86L53.54 36.9048" stroke="#BBD6F1"/>
<path d="M22.5619 44.0666L23.67 44.8726C24.0481 45.1476 24.4041 45.4517 24.7347 45.7823L24.924 45.9717C25.4789 46.5266 25.9408 47.1673 26.2917 47.8693V47.8693C26.4462 48.1782 26.5786 48.4978 26.6878 48.8255L27.1333 50.1619" stroke="#BBD6F1"/>
<path d="M32.619 14.4688V14.4688C33.6173 15.1549 34.1929 16.306 34.1428 17.5164V17.5164" stroke="#BBD6F1"/>
<path d="M89.6903 29.8494C89.6989 28.5625 89.2812 27.5781 88.4375 26.8963C87.6023 26.2145 86.4347 25.8736 84.9347 25.8736C83.8608 25.8736 82.902 26.044 82.0582 26.3849C81.223 26.7173 80.5412 27.1776 80.0128 27.7656C79.4929 28.3452 79.1733 29.0057 79.054 29.7472C78.9432 30.3693 78.9986 30.9062 79.2202 31.358C79.4503 31.8097 79.7784 32.1889 80.2045 32.4957C80.6392 32.794 81.1165 33.0455 81.6364 33.25C82.1563 33.446 82.6591 33.608 83.1449 33.7358L85.5994 34.4006C86.392 34.6051 87.1974 34.8821 88.0156 35.2315C88.8338 35.581 89.571 36.0412 90.2273 36.6122C90.8835 37.1832 91.3736 37.8906 91.6974 38.7344C92.0213 39.5781 92.0852 40.5881 91.8892 41.7642C91.6335 43.2472 91.0327 44.5639 90.0866 45.7145C89.1406 46.8651 87.892 47.7727 86.3409 48.4375C84.7898 49.1023 82.9915 49.4347 80.946 49.4347C78.9858 49.4347 77.3366 49.1236 75.9986 48.5014C74.669 47.8793 73.6932 46.9972 73.071 45.8551C72.4489 44.7045 72.2273 43.3409 72.4062 41.7642H76.3821C76.2884 42.7102 76.4588 43.4986 76.8935 44.1293C77.3366 44.7514 77.9588 45.2159 78.7599 45.5227C79.5611 45.821 80.4688 45.9702 81.483 45.9702C82.608 45.9702 83.6349 45.7955 84.5639 45.446C85.4929 45.0881 86.2599 44.5937 86.8651 43.9631C87.4702 43.3239 87.8409 42.5781 87.9773 41.7259C88.1136 40.9503 88.0028 40.3153 87.6449 39.821C87.2955 39.3267 86.767 38.9176 86.0597 38.5938C85.3608 38.2699 84.5639 37.9844 83.669 37.7372L80.7159 36.8935C78.7131 36.3224 77.196 35.483 76.1648 34.375C75.1335 33.267 74.7628 31.8011 75.0526 29.9773C75.3082 28.4687 75.9389 27.152 76.9446 26.027C77.9503 24.902 79.2031 24.0284 80.7031 23.4062C82.2031 22.7756 83.831 22.4602 85.5866 22.4602C87.3594 22.4602 88.8679 22.7756 90.1122 23.4062C91.3565 24.0369 92.277 24.9062 92.8736 26.0142C93.4702 27.1222 93.679 28.4006 93.5 29.8494H89.6903ZM95.114 49L98.3867 29.3636H102.056L101.519 32.5597H101.762C102.358 31.4773 103.168 30.6335 104.191 30.0284C105.222 29.4148 106.39 29.108 107.694 29.108C108.989 29.108 110.033 29.4148 110.826 30.0284C111.627 30.642 112.151 31.4858 112.398 32.5597H112.603C113.233 31.5028 114.115 30.6634 115.249 30.0412C116.382 29.419 117.657 29.108 119.071 29.108C120.836 29.108 122.191 29.6705 123.137 30.7955C124.091 31.9119 124.381 33.5909 124.006 35.8324L121.807 49H117.972L120.12 36.1903C120.333 34.8523 120.128 33.8892 119.506 33.3011C118.884 32.7045 118.07 32.4062 117.064 32.4062C115.82 32.4062 114.789 32.7898 113.971 33.5568C113.152 34.3153 112.65 35.2912 112.462 36.4844L110.353 49H106.556L108.742 35.9474C108.912 34.8736 108.716 34.017 108.154 33.3778C107.6 32.7301 106.79 32.4062 105.725 32.4062C105 32.4062 104.297 32.598 103.615 32.9815C102.942 33.3651 102.367 33.8935 101.89 34.5668C101.412 35.2401 101.101 36.0156 100.956 36.8935L98.9364 49H95.114ZM132.581 49.4347C131.337 49.4347 130.25 49.2045 129.321 48.7443C128.392 48.2756 127.706 47.598 127.263 46.7116C126.82 45.8253 126.705 44.7386 126.918 43.4517C127.105 42.3437 127.472 41.4318 128.017 40.7159C128.571 40 129.244 39.4332 130.037 39.0156C130.83 38.5895 131.69 38.2699 132.619 38.0568C133.548 37.8437 134.486 37.6861 135.432 37.5838C136.625 37.4474 137.592 37.3324 138.334 37.2386C139.084 37.1449 139.646 37 140.021 36.804C140.396 36.5994 140.622 36.267 140.699 35.8068V35.7173C140.878 34.6094 140.716 33.7486 140.213 33.1349C139.719 32.5128 138.858 32.2017 137.631 32.2017C136.352 32.2017 135.278 32.483 134.409 33.0455C133.548 33.608 132.913 34.2386 132.504 34.9375L129.078 34.1193C129.692 32.9261 130.472 31.9631 131.418 31.2301C132.372 30.4886 133.416 29.9517 134.55 29.6193C135.683 29.2784 136.842 29.108 138.027 29.108C138.811 29.108 139.625 29.2017 140.469 29.3892C141.312 29.5682 142.08 29.9006 142.77 30.3864C143.469 30.8722 143.989 31.5668 144.33 32.4702C144.67 33.3651 144.722 34.5284 144.483 35.9602L142.322 49H138.589L139.05 46.3153H138.896C138.572 46.8097 138.121 47.2955 137.541 47.7727C136.97 48.25 136.271 48.6463 135.445 48.9616C134.618 49.277 133.663 49.4347 132.581 49.4347ZM133.885 46.3665C134.95 46.3665 135.892 46.1577 136.71 45.7401C137.537 45.3224 138.206 44.777 138.717 44.1037C139.229 43.4219 139.548 42.6932 139.676 41.9176L140.098 39.3864C139.936 39.5227 139.651 39.6463 139.241 39.7571C138.841 39.8679 138.389 39.9659 137.886 40.0511C137.384 40.1364 136.889 40.2088 136.403 40.2685C135.926 40.3281 135.53 40.3835 135.214 40.4347C134.464 40.5284 133.761 40.6861 133.105 40.9077C132.457 41.1293 131.916 41.4489 131.482 41.8665C131.047 42.2756 130.774 42.821 130.663 43.5028C130.51 44.4489 130.736 45.1648 131.341 45.6506C131.955 46.1278 132.803 46.3665 133.885 46.3665ZM147.414 49L150.686 29.3636H154.381L153.857 32.483H154.061C154.59 31.4261 155.361 30.5952 156.375 29.9901C157.39 29.3764 158.472 29.0696 159.623 29.0696C159.87 29.0696 160.151 29.0781 160.466 29.0952C160.782 29.1037 161.037 29.125 161.233 29.1591L160.62 32.8153C160.475 32.7727 160.211 32.7259 159.827 32.6747C159.444 32.6151 159.047 32.5852 158.638 32.5852C157.743 32.5852 156.912 32.777 156.145 33.1605C155.378 33.5355 154.735 34.0597 154.215 34.733C153.695 35.3977 153.358 36.1562 153.205 37.0085L151.236 49H147.414ZM174.9 29.3636L174.401 32.4318H163.675L164.174 29.3636H174.9ZM167.817 24.6591H171.64L168.546 43.2344C168.426 43.9759 168.448 44.5341 168.61 44.9091C168.772 45.2756 169.019 45.527 169.351 45.6634C169.692 45.7912 170.071 45.8551 170.489 45.8551C170.796 45.8551 171.064 45.8338 171.294 45.7912C171.525 45.7486 171.708 45.7145 171.844 45.6889L172.049 48.8466C171.793 48.9318 171.448 49.017 171.013 49.1023C170.587 49.196 170.067 49.2472 169.453 49.2557C168.448 49.2727 167.54 49.0938 166.73 48.7188C165.921 48.3352 165.316 47.7557 164.915 46.9801C164.515 46.196 164.417 45.2116 164.621 44.027L167.817 24.6591ZM176.584 49L180.93 22.8182H190.263C192.291 22.8182 193.911 23.1889 195.121 23.9304C196.339 24.6719 197.175 25.6818 197.626 26.9602C198.087 28.2386 198.185 29.6832 197.92 31.294C197.648 32.9048 197.068 34.3537 196.182 35.6406C195.304 36.919 194.132 37.9332 192.666 38.6832C191.2 39.4247 189.457 39.7955 187.438 39.7955H181.007L181.557 36.446H187.616C188.903 36.446 189.986 36.2244 190.864 35.7812C191.75 35.3295 192.445 34.7159 192.947 33.9403C193.45 33.1562 193.778 32.2741 193.932 31.294C194.094 30.2969 194.051 29.419 193.804 28.6605C193.557 27.8935 193.067 27.2926 192.334 26.858C191.609 26.4233 190.595 26.206 189.291 26.206H184.331L180.534 49H176.584ZM207.349 49.3963C205.482 49.3963 203.923 48.9702 202.67 48.1179C201.417 47.2571 200.535 46.0554 200.023 44.5128C199.521 42.9616 199.435 41.1591 199.768 39.1051C200.092 37.0937 200.744 35.3381 201.724 33.8381C202.712 32.3381 203.948 31.1747 205.431 30.348C206.923 29.5213 208.58 29.108 210.404 29.108C212.271 29.108 213.826 29.5384 215.07 30.3991C216.323 31.2599 217.205 32.4659 217.717 34.017C218.228 35.5682 218.317 37.375 217.985 39.4375C217.661 41.4318 217.001 43.179 216.004 44.679C215.015 46.1705 213.779 47.3295 212.296 48.1562C210.813 48.983 209.164 49.3963 207.349 49.3963ZM207.566 46.1875C208.793 46.1875 209.863 45.8636 210.775 45.2159C211.695 44.5682 212.445 43.7074 213.025 42.6335C213.604 41.5597 214.001 40.3835 214.214 39.1051C214.41 37.8693 214.406 36.7401 214.201 35.7173C214.005 34.6861 213.579 33.8594 212.923 33.2372C212.266 32.6151 211.354 32.304 210.187 32.304C208.96 32.304 207.881 32.6321 206.952 33.2884C206.032 33.9361 205.282 34.8011 204.702 35.8835C204.131 36.9659 203.744 38.1463 203.539 39.4247C203.343 40.652 203.343 41.7812 203.539 42.8125C203.735 43.8352 204.161 44.6534 204.817 45.267C205.474 45.8807 206.39 46.1875 207.566 46.1875ZM229.04 49.3963C227.174 49.3963 225.614 48.9702 224.361 48.1179C223.108 47.2571 222.226 46.0554 221.715 44.5128C221.212 42.9616 221.127 41.1591 221.459 39.1051C221.783 37.0937 222.435 35.3381 223.415 33.8381C224.404 32.3381 225.64 31.1747 227.123 30.348C228.614 29.5213 230.272 29.108 232.096 29.108C233.962 29.108 235.517 29.5384 236.762 30.3991C238.015 31.2599 238.897 32.4659 239.408 34.017C239.919 35.5682 240.009 37.375 239.676 39.4375C239.353 41.4318 238.692 43.179 237.695 44.679C236.706 46.1705 235.471 47.3295 233.988 48.1562C232.505 48.983 230.855 49.3963 229.04 49.3963ZM229.257 46.1875C230.485 46.1875 231.554 45.8636 232.466 45.2159C233.387 44.5682 234.137 43.7074 234.716 42.6335C235.296 41.5597 235.692 40.3835 235.905 39.1051C236.101 37.8693 236.097 36.7401 235.892 35.7173C235.696 34.6861 235.27 33.8594 234.614 33.2372C233.958 32.6151 233.046 32.304 231.878 32.304C230.651 32.304 229.573 32.6321 228.644 33.2884C227.723 33.9361 226.973 34.8011 226.394 35.8835C225.823 36.9659 225.435 38.1463 225.23 39.4247C225.034 40.652 225.034 41.7812 225.23 42.8125C225.426 43.8352 225.853 44.6534 226.509 45.267C227.165 45.8807 228.081 46.1875 229.257 46.1875ZM250.54 22.8182L246.193 49H242.371L246.717 22.8182H250.54ZM269.093 29.8494C269.101 28.5625 268.684 27.5781 267.84 26.8963C267.005 26.2145 265.837 25.8736 264.337 25.8736C263.263 25.8736 262.304 26.044 261.461 26.3849C260.625 26.7173 259.944 27.1776 259.415 27.7656C258.895 28.3452 258.576 29.0057 258.456 29.7472C258.346 30.3693 258.401 30.9062 258.623 31.358C258.853 31.8097 259.181 32.1889 259.607 32.4957C260.042 32.794 260.519 33.0455 261.039 33.25C261.559 33.446 262.061 33.608 262.547 33.7358L265.002 34.4006C265.794 34.6051 266.6 34.8821 267.418 35.2315C268.236 35.581 268.973 36.0412 269.63 36.6122C270.286 37.1832 270.776 37.8906 271.1 38.7344C271.424 39.5781 271.488 40.5881 271.292 41.7642C271.036 43.2472 270.435 44.5639 269.489 45.7145C268.543 46.8651 267.294 47.7727 265.743 48.4375C264.192 49.1023 262.394 49.4347 260.348 49.4347C258.388 49.4347 256.739 49.1236 255.401 48.5014C254.071 47.8793 253.096 46.9972 252.473 45.8551C251.851 44.7045 251.63 43.3409 251.809 41.7642H255.784C255.691 42.7102 255.861 43.4986 256.296 44.1293C256.739 44.7514 257.361 45.2159 258.162 45.5227C258.963 45.821 259.871 45.9702 260.885 45.9702C262.01 45.9702 263.037 45.7955 263.966 45.446C264.895 45.0881 265.662 44.5937 266.267 43.9631C266.873 43.3239 267.243 42.5781 267.38 41.7259C267.516 40.9503 267.405 40.3153 267.047 39.821C266.698 39.3267 266.169 38.9176 265.462 38.5938C264.763 38.2699 263.966 37.9844 263.071 37.7372L260.118 36.8935C258.115 36.3224 256.598 35.483 255.567 34.375C254.536 33.267 254.165 31.8011 254.455 29.9773C254.711 28.4687 255.341 27.152 256.347 26.027C257.353 24.902 258.605 24.0284 260.105 23.4062C261.605 22.7756 263.233 22.4602 264.989 22.4602C266.762 22.4602 268.27 22.7756 269.515 23.4062C270.759 24.0369 271.679 24.9062 272.276 26.0142C272.873 27.1222 273.081 28.4006 272.902 29.8494H269.093ZM282.915 49.3963C280.989 49.3963 279.396 48.983 278.134 48.1562C276.881 47.321 276.004 46.1491 275.501 44.6406C274.998 43.1236 274.917 41.3466 275.258 39.3097C275.59 37.2983 276.259 35.5256 277.265 33.9915C278.271 32.4574 279.523 31.2599 281.023 30.3991C282.532 29.5384 284.198 29.108 286.022 29.108C287.13 29.108 288.174 29.2912 289.154 29.6577C290.143 30.0241 290.982 30.5994 291.673 31.3835C292.363 32.1676 292.84 33.1861 293.104 34.4389C293.377 35.6832 293.369 37.196 293.079 38.9773L292.862 40.3324H277.239L277.687 37.4688H289.55C289.729 36.4631 289.683 35.5724 289.41 34.7969C289.137 34.0128 288.668 33.3949 288.004 32.9432C287.347 32.4915 286.521 32.2656 285.523 32.2656C284.501 32.2656 283.546 32.5341 282.66 33.071C281.773 33.608 281.032 34.294 280.435 35.1293C279.847 35.956 279.477 36.8082 279.323 37.6861L278.876 40.3068C278.654 41.7386 278.692 42.8892 278.991 43.7585C279.298 44.6278 279.835 45.2585 280.602 45.6506C281.369 46.0426 282.327 46.2386 283.478 46.2386C284.219 46.2386 284.906 46.1364 285.536 45.9318C286.175 45.7187 286.742 45.4077 287.237 44.9986C287.731 44.581 288.144 44.0611 288.477 43.4389L291.979 44.0909C291.511 45.1562 290.837 46.0895 289.96 46.8906C289.082 47.6832 288.046 48.3011 286.853 48.7443C285.668 49.179 284.356 49.3963 282.915 49.3963ZM301.456 37.3409L299.538 49H295.716L298.988 29.3636H302.657L302.12 32.5597H302.363C302.985 31.5114 303.833 30.6761 304.907 30.054C305.99 29.4233 307.268 29.108 308.743 29.108C310.072 29.108 311.189 29.3892 312.092 29.9517C313.004 30.5057 313.647 31.3324 314.022 32.4318C314.406 33.5312 314.466 34.8906 314.201 36.5099L312.105 49H308.282L310.289 36.9702C310.52 35.5469 310.332 34.4347 309.727 33.6335C309.13 32.8239 308.18 32.419 306.876 32.419C305.99 32.419 305.167 32.6108 304.409 32.9943C303.659 33.3778 303.024 33.9403 302.504 34.6818C301.993 35.4148 301.643 36.3011 301.456 37.3409ZM334.413 34.1577L330.846 34.7713C330.77 34.3196 330.612 33.8935 330.373 33.4929C330.143 33.0923 329.789 32.7685 329.312 32.5213C328.835 32.2656 328.2 32.1378 327.407 32.1378C326.308 32.1378 325.345 32.3892 324.518 32.892C323.7 33.3949 323.231 34.0341 323.112 34.8097C323.001 35.4403 323.15 35.9517 323.559 36.3438C323.968 36.7273 324.689 37.0469 325.72 37.3026L328.737 38.0185C330.475 38.4361 331.72 39.0881 332.47 39.9744C333.228 40.8523 333.493 41.9943 333.262 43.4006C333.066 44.5682 332.555 45.6037 331.728 46.5071C330.91 47.4105 329.862 48.1179 328.583 48.6293C327.305 49.1406 325.882 49.3963 324.314 49.3963C322.081 49.3963 320.342 48.9233 319.098 47.9773C317.853 47.0313 317.214 45.6932 317.18 43.9631L320.964 43.4006C321.032 44.3636 321.377 45.0923 322 45.5866C322.63 46.0724 323.504 46.3153 324.62 46.3153C325.899 46.3239 326.968 46.0554 327.829 45.5099C328.69 44.9645 329.18 44.304 329.299 43.5284C329.402 42.9233 329.265 42.4205 328.89 42.0199C328.524 41.6193 327.876 41.3125 326.947 41.0994L323.777 40.3707C322.004 39.9531 320.751 39.2798 320.018 38.3509C319.285 37.4219 319.038 36.2543 319.277 34.848C319.464 33.6974 319.95 32.696 320.734 31.8438C321.527 30.983 322.528 30.3139 323.738 29.8366C324.949 29.3509 326.287 29.108 327.752 29.108C329.892 29.108 331.498 29.5682 332.572 30.4886C333.646 31.4006 334.26 32.6236 334.413 34.1577ZM344.931 49.3963C343.005 49.3963 341.411 48.983 340.15 48.1562C338.897 47.321 338.019 46.1491 337.516 44.6406C337.013 43.1236 336.933 41.3466 337.273 39.3097C337.606 37.2983 338.275 35.5256 339.281 33.9915C340.286 32.4574 341.539 31.2599 343.039 30.3991C344.548 29.5384 346.214 29.108 348.038 29.108C349.146 29.108 350.19 29.2912 351.17 29.6577C352.158 30.0241 352.998 30.5994 353.688 31.3835C354.379 32.1676 354.856 33.1861 355.12 34.4389C355.393 35.6832 355.384 37.196 355.094 38.9773L354.877 40.3324H339.255L339.702 37.4688H351.566C351.745 36.4631 351.698 35.5724 351.425 34.7969C351.153 34.0128 350.684 33.3949 350.019 32.9432C349.363 32.4915 348.536 32.2656 347.539 32.2656C346.516 32.2656 345.562 32.5341 344.675 33.071C343.789 33.608 343.048 34.294 342.451 35.1293C341.863 35.956 341.492 36.8082 341.339 37.6861L340.891 40.3068C340.67 41.7386 340.708 42.8892 341.006 43.7585C341.313 44.6278 341.85 45.2585 342.617 45.6506C343.384 46.0426 344.343 46.2386 345.494 46.2386C346.235 46.2386 346.921 46.1364 347.552 45.9318C348.191 45.7187 348.758 45.4077 349.252 44.9986C349.746 44.581 350.16 44.0611 350.492 43.4389L353.995 44.0909C353.526 45.1562 352.853 46.0895 351.975 46.8906C351.097 47.6832 350.062 48.3011 348.869 48.7443C347.684 49.179 346.371 49.3963 344.931 49.3963Z" fill="#5877FF"/>
</svg>
